<mxfile host="app.diagrams.net" modified="2024-03-16T15:59:31.893Z" agent="Mozilla/5.0 (Macintosh; Intel Mac OS X 10_15_7) AppleWebKit/605.1.15 (KHTML, like Gecko) Version/16.6 Safari/605.1.15" version="24.0.7" etag="wKtFs-AyRXmHd0noTdfZ" type="github">
  <diagram name="Page-1" id="Vh_gij_p4oofNgUb5lbU">
    <mxGraphModel>
      <root>
        <mxCell id="0" />
        <mxCell id="1" parent="0" />
      </root>
    </mxGraphModel>
  </diagram>
</mxfile>
